# xmcd CD database file
#
# Track frame offsets:
#	150
#	20325
#	41400
#	42900
#	63075
#	98175
#	117750
#	138000
#	160500
#	183825
#	204675
#	229125
#	249900
#
# Disc length: 3609 seconds
#
# Revision: 1
# Processed by: cddbd v1.5.1PL2 Copyright (c) Steve Scherf et al.
# Submitted via: freeDBTagger 0.8.2.1
#
DISCID=990e170d
DTITLE=Earth Wind and Fire - Illumination
DYEAR=2005
DGENRE=blues
TTITLE0=Lovely People
TTITLE1=Pure Gold
TTITLE2=A Talking Voice (Interlude)
TTITLE3=Love's Dance
TTITLE4=Show Me The Way
TTITLE5=This Is How I Feel
TTITLE6=Work It Out
TTITLE7=Pass You By
TTITLE8=The One
TTITLE9=Elevated
TTITLE10=Liberation
TTITLE11=To You
TTITLE12=The Way You Move (Bonus Track)
EXTD=
EXTT0=
EXTT1=
EXTT2=
EXTT3=
EXTT4=
EXTT5=
EXTT6=
EXTT7=
EXTT8=
EXTT9=
EXTT10=
EXTT11=
EXTT12=
PLAYORDER=
